{
  "accessors": [
    {
      "bufferView": 1,
      "componentType": 5126,
      "count": 18609,
      "max": [
        0.89081400632858276,
        0.18779799342155457,
        1.9999990463256836
      ],
      "min": [
        -0.89081400632858276,
        -0.1805109977722168,
        -0.0069400002248585224
      ],
      "type": "VEC3"
    },
    {
      "bufferView": 1,
      "byteOffset": 223308,
      "componentType": 5126,
      "count": 18609,
      "max": [
        1,
        0.9999992847442627,
        0.99998319149017334
      ],
      "min": [
        -1,
        -0.99999463558197021,
        -0.99998235702514648
      ],
      "type": "VEC3"
    },
    {
      "bufferView": 0,
      "componentType": 5125,
      "count": 111264,
      "max": [
        18608
      ],
      "min": [
        0
      ],
      "type": "SCALAR"
    }
  ],
  "asset": {
    "extras": {
      "author": "Brera (https://sketchfab.com/brera)",
      "license": "CC-BY-SA-4.0 (http://creativecommons.org/licenses/by-sa/4.0/)",
      "source": "https://sketchfab.com/3d-models/female-base-mesh-b6389ae82f044dbe9945c4dad2cd72ae",
      "title": "Female base mesh"
    },
    "generator": "Sketchfab-9.37.0",
    "version": "2.0"
  },
  "bufferViews": [
    {
      "buffer": 0,
      "byteLength": 445056,
      "byteOffset": 0,
      "name": "floatBufferViews",
      "target": 34963
    },
    {
      "buffer": 0,
      "byteLength": 446616,
      "byteOffset": 445056,
      "byteStride": 12,
      "name": "floatBufferViews",
      "target": 34962
    }
  ],
  "buffers": [
    {
      "byteLength": 891672,
      "uri": "scene.bin"
    }
  ],
  "materials": [
    {
      "doubleSided": true,
      "name": "material_0",
      "pbrMetallicRoughness": {
        "baseColorFactor": [
          0.17446236145536798,
          0.18525936773129745,
          0.18525936773129745,
          1
        ],
        "metallicFactor": 0,
        "roughnessFactor": 0.59999999999999998
      }
    }
  ],
  "meshes": [
    {
      "primitives": [
        {
          "attributes": {
            "NORMAL": 1,
            "POSITION": 0
          },
          "indices": 2,
          "material": 0,
          "mode": 4
        }
      ]
    }
  ],
  "nodes": [
    {
      "children": [
        1
      ],
      "name": "RootNode (gltf orientation matrix)",
      "rotation": [
        -0.70710678118654746,
        -0,
        -0,
        0.70710678118654757
      ]
    },
    {
      "children": [
        2
      ],
      "name": "RootNode (model correction matrix)"
    },
    {
      "children": [
        3
      ],
      "name": "Female base.obj.cleaner.materialmerger.gles"
    },
    {
      "mesh": 0,
      "name": ""
    }
  ],
  "scene": 0,
  "scenes": [
    {
      "name": "OSG_Scene",
      "nodes": [
        0
      ]
    }
  ]
}

